<?xml version="1.0" encoding="UTF-8" standalone="no"?>
<svg width="161px" height="164px" viewBox="0 0 161 164" version="1.1" xmlns="http://www.w3.org/2000/svg" xmlns:xlink="http://www.w3.org/1999/xlink" xmlns:sketch="http://www.bohemiancoding.com/sketch/ns">
    <!-- Generator: Sketch 3.3.3 (12072) - http://www.bohemiancoding.com/sketch -->
    <title>swell mark</title>
    <desc>Created with Sketch.</desc>
    <defs>
        <linearGradient x1="50%" y1="-2.22044605e-14%" x2="50%" y2="100%" id="linearGradient-1">
            <stop stop-color="#94DAC5" offset="0%"></stop>
            <stop stop-color="#EDAB10" offset="100%"></stop>
        </linearGradient>
        <path id="path-2" d="M0,0 L81.8184691,0 L81.8184691,98.8308417 L0,98.8308417"></path>
        <path id="path-4" d="M0,0 L83.0216819,0 L83.0216819,98.8308417 L0,98.8308417"></path>
    </defs>
    <g id="Home" stroke="none" stroke-width="1" fill="none" fill-rule="evenodd" sketch:type="MSPage">
        <g id="swell-careers" sketch:type="MSArtboardGroup" transform="translate(-639.000000, -242.000000)">
            <g id="swell-mark" sketch:type="MSLayerGroup" transform="translate(639.000000, 242.000000)">
                <ellipse id="Oval-16" fill="url(#linearGradient-1)" sketch:type="MSShapeGroup" cx="80.3144531" cy="82" rx="80.3144531" ry="82"></ellipse>
                <g id="icon-swell" transform="translate(39.000000, 33.000000)">
                    <mask id="mask-3" sketch:name="Clip 2" fill="white">
                        <use xlink:href="#path-2"></use>
                    </mask>
                    <g id="Clip-2"></g>
                    <mask id="mask-5" sketch:name="Clip 8" fill="white">
                        <use xlink:href="#path-4"></use>
                    </mask>
                    <g id="Clip-8"></g>
                    <path d="M40.6718006,14.0947427 C41.7053603,14.0947427 42.5435986,13.2338756 42.5435986,12.1724141 L42.5435986,1.92191676 C42.5435986,0.860455231 41.7053603,0 40.6718006,0 C39.6386419,0 38.8004036,0.860455231 38.8004036,1.92191676 L38.8004036,12.1724141 C38.8004036,13.2338756 39.6386419,14.0947427 40.6718006,14.0947427" id="Fill-1" fill="#FFFFFF" sketch:type="MSShapeGroup" mask="url(#mask-5)"></path>
                    <path d="M11.8095334,30.5323621 L2.58811069,26.6094442 C1.63316081,26.2033126 0.538638255,26.6691694 0.14278125,27.6498989 C-0.252674684,28.6306284 0.200936534,29.7546984 1.15588641,30.16083 L10.3773092,34.083748 C10.6115346,34.1834273 10.8537814,34.2303837 11.0924186,34.2303837 C11.8267795,34.2303837 12.5238408,33.7834742 12.8222375,33.0432932 C13.2176935,32.0625638 12.7644833,30.9384937 11.8095334,30.5323621" id="Fill-3" fill="#FFFFFF" sketch:type="MSShapeGroup" mask="url(#mask-5)"></path>
                    <path d="M81.2012209,27.6498989 C80.8053639,26.6691694 79.7104403,26.2033126 78.7558915,26.6094442 L69.5344687,30.5323621 C68.5795189,30.9384937 68.1259077,32.0625638 68.5217647,33.0432932 C68.8201614,33.7834742 69.5172227,34.2303837 70.2515836,34.2303837 C70.4902208,34.2303837 70.7328687,34.1834273 70.966693,34.083748 L80.1881158,30.16083 C81.1430657,29.7546984 81.5966769,28.6306284 81.2012209,27.6498989" id="Fill-5" fill="#FFFFFF" sketch:type="MSShapeGroup" mask="url(#mask-5)"></path>
                    <path d="M21.1677214,18.8707018 C21.5286852,19.4255286 22.121468,19.7249785 22.7254809,19.7249785 C23.0828351,19.7249785 23.4442,19.6203564 23.7634524,19.4012266 C24.6229474,18.8113884 24.8539643,17.6177076 24.2800318,16.7354218 L18.7348251,8.21242528 C18.1600905,7.32931565 16.997787,7.09206231 16.138693,7.68190046 C15.2795991,8.27173861 15.0485823,9.46541944 15.6225147,10.3477053 L21.1677214,18.8707018" id="Fill-6" fill="#FFFFFF" sketch:type="MSShapeGroup" mask="url(#mask-5)"></path>
                    <path d="M57.5801487,19.4012266 C57.8998022,19.6203564 58.2611671,19.7249785 58.6185213,19.7249785 C59.2225341,19.7249785 59.815317,19.4255286 60.1762808,18.8707018 L65.7214874,10.3477053 C66.2954199,9.46541944 66.0644031,8.27173861 65.2049081,7.68190046 C64.3454131,7.09206231 63.1835106,7.32972755 62.6091771,8.21242528 L57.0639704,16.7354218 C56.4900379,17.6177076 56.7210548,18.8113884 57.5801487,19.4012266" id="Fill-7" fill="#FFFFFF" sketch:type="MSShapeGroup" mask="url(#mask-5)"></path>
                    <path d="M51.8977758,71.0532544 C51.8949683,73.2840947 51.8969737,75.5149351 51.8969737,77.7173545 C51.8969737,77.7173545 50.3773159,78.6700749 47.957254,77.8664616 C47.533322,77.7255925 47.080914,77.2795068 46.6048428,76.8157094 C46.0650013,75.1944783 45.6470854,73.3079848 45.3458811,71.2839173 C44.1073741,62.9643985 44.8605853,52.2937651 47.4162093,47.9214663 C47.7190178,47.4032984 47.6620657,46.7442613 47.2754334,46.2891139 C46.8883999,45.8339664 46.2599218,45.6869188 45.7196792,45.9254078 C44.0407963,46.6643531 42.3161914,47.0552444 40.7311591,47.0552444 C39.1838274,47.0552444 37.5249981,46.6239871 35.6600183,45.7363466 C35.1177704,45.4784983 34.4732494,45.6152485 34.0757881,46.0757506 C33.6787279,46.5350171 33.6221769,47.2080587 33.9366165,47.7311693 C36.7188455,52.3571974 37.2161735,63.1534598 35.9953136,71.2830935 C35.6560075,73.5440025 35.183546,75.5989623 34.5903621,77.2572643 C34.578731,77.290628 34.5747203,77.3244037 34.5650946,77.3581793 C34.1531948,77.5744258 33.758541,77.7428922 33.3867482,77.8664616 C30.9666863,78.6700749 29.4470285,77.7173545 29.4470285,77.7173545 C29.4470285,75.5149351 29.4490339,73.2840947 29.4462264,71.0532544 C29.4454242,70.5120202 29.2954237,69.7491848 29.0684176,68.9352741 C28.6773734,67.5327609 28.0553124,65.9761978 27.5615941,65.1272757 C26.6599867,63.5760673 25.6232183,62.1311286 24.5623857,60.7039015 C20.6780138,56.568856 18.2844225,50.9468581 18.2844225,44.7473791 C18.2844225,32.049383 28.307586,21.7556364 40.6718006,21.7556364 C53.0360151,21.7556364 63.0595797,32.049383 63.0595797,44.7473791 C63.0595797,50.9468581 60.6659884,56.568856 56.7816165,60.7039015 C55.7207839,62.1311286 54.6840155,63.5760673 53.7824081,65.1272757 C53.2886898,65.9761978 52.6666288,67.5327609 52.2755846,68.9352741 C52.0485785,69.7491848 51.8985779,70.5120202 51.8977758,71.0532544 L51.8977758,71.0532544 Z M37.6196508,49.4207755 C39.7429203,49.9780737 41.7009486,49.9587145 43.7965442,49.4809126 C41.9026872,55.3072119 41.6447986,64.4093372 42.6907916,71.6319713 C43.0048301,73.8018507 43.4351792,75.8036757 43.9758229,77.4936938 C43.2037613,77.8273313 42.399213,78.038635 41.5653866,78.1082458 L40.6718006,78.1424334 L39.7786156,78.1082458 C38.9873027,78.0419302 38.2188508,77.6362106 37.4824846,77.1390495 C37.9754007,75.5202898 38.3740652,73.6482127 38.6716598,71.6336188 C39.7433214,64.3784449 39.5022777,55.2660221 37.6196508,49.4207755 L37.6196508,49.4207755 Z M43.7018914,89.6669317 L37.6421108,89.6669317 C35.3451776,86.7803494 33.0033244,83.8369253 30.5471661,80.7505725 C32.6170931,80.6986733 34.307206,80.2814205 35.7915695,79.1664122 C37.2578848,80.2740063 38.9235324,80.7464535 40.6718006,80.7122659 C42.4204698,80.7464535 44.0857163,80.2740063 45.5524327,79.1664122 C47.0367962,80.2814205 48.7269091,80.6986733 50.7968361,80.7505725 C48.3406778,83.8369253 45.9988246,86.7803494 43.7018914,89.6669317 L43.7018914,89.6669317 Z M66.855716,44.828935 C66.855716,29.9779472 55.1328139,17.9385763 40.6718006,17.9385763 C26.2111883,17.9385763 14.4882862,29.9779472 14.4882862,44.828935 C14.4882862,52.3765566 17.5187781,59.1938829 22.3953995,64.0761116 C22.3825652,64.0633428 22.3689288,64.0509858 22.3560945,64.038217 C22.6015499,64.3735021 22.8454011,64.7100229 23.0848404,65.049015 C24.5724125,67.1529908 25.8000906,69.3471722 25.7186732,72.0970043 C25.6476836,74.4958991 25.734315,76.8989129 25.6825768,79.2986315 C25.6697425,79.9016504 25.7876574,80.4610081 26.0780327,80.8947368 C26.9760305,82.2362891 34.4078748,91.8384587 35.6419701,93.3184088 C36.1649666,93.9457296 36.7264659,94.5487485 37.174061,95.2300281 C37.9894382,96.4710772 40.4119066,98.8555556 40.6718006,98.8555556 C40.9316945,98.8555556 43.354564,96.4710772 44.1699412,95.2300281 C44.6171353,94.5487485 45.1790356,93.9457296 45.7020321,93.3184088 C46.9361274,91.8384587 54.3679716,82.2362891 55.2659695,80.8947368 C55.5563448,80.4610081 55.6742597,79.9016504 55.6614254,79.2986315 C55.6096872,76.8989129 55.6963186,74.4958991 55.625329,72.0970043 C55.5439116,69.3471722 56.7715897,67.1529908 58.2591618,65.049015 C58.4986011,64.7100229 58.7424522,64.3735021 58.9879077,64.0378051 C58.9750734,64.0509858 58.9610359,64.0633428 58.9482016,64.0765235 C63.8252241,59.1938829 66.855716,52.3765566 66.855716,44.828935 L66.855716,44.828935 Z" id="Fill-9" fill="#FFFFFF" sketch:type="MSShapeGroup" mask="url(#mask-5)"></path>
                </g>
            </g>
        </g>
    </g>
</svg>