<?xml version="1.0" encoding="UTF-8" standalone="no"?>
<svg width="161px" height="161px" viewBox="0 0 161 161" version="1.1" xmlns="http://www.w3.org/2000/svg" xmlns:xlink="http://www.w3.org/1999/xlink" xmlns:sketch="http://www.bohemiancoding.com/sketch/ns">
    <!-- Generator: Sketch 3.3.3 (12072) - http://www.bohemiancoding.com/sketch -->
    <title>swell-mark-color</title>
    <desc>Created with Sketch.</desc>
    <defs>
        <linearGradient x1="50%" y1="-2.22044605e-14%" x2="50%" y2="100%" id="linearGradient-1">
            <stop stop-color="#94DAC5" offset="0%"></stop>
            <stop stop-color="#EDAB10" offset="100%"></stop>
        </linearGradient>
        <path id="path-2" d="M0,0 L81.8184691,0 L81.8184691,97.0229604 L0,97.0229604"></path>
        <path id="path-4" d="M0,0 L83.0216819,0 L83.0216819,97.0229604 L0,97.0229604"></path>
    </defs>
    <g id="Press" stroke="none" stroke-width="1" fill="none" fill-rule="evenodd" sketch:type="MSPage">
        <g id="swell-press" sketch:type="MSArtboardGroup" transform="translate(-348.000000, -1305.000000)">
            <g id="swell-mark-color" sketch:type="MSLayerGroup" transform="translate(348.000000, 1305.000000)">
                <ellipse id="Oval-16" fill="url(#linearGradient-1)" sketch:type="MSShapeGroup" cx="80.3144531" cy="80.5" rx="80.3144531" ry="80.5"></ellipse>
                <g id="icon-swell" transform="translate(39.000000, 32.396341)">
                    <mask id="mask-3" sketch:name="Clip 2" fill="white">
                        <use xlink:href="#path-2"></use>
                    </mask>
                    <g id="Clip-2"></g>
                    <mask id="mask-5" sketch:name="Clip 8" fill="white">
                        <use xlink:href="#path-4"></use>
                    </mask>
                    <g id="Clip-8"></g>
                    <path d="M40.6718006,13.8369121 C41.7053603,13.8369121 42.5435986,12.9917925 42.5435986,11.949748 L42.5435986,1.88675975 C42.5435986,0.844715197 41.7053603,0 40.6718006,0 C39.6386419,0 38.8004036,0.844715197 38.8004036,1.88675975 L38.8004036,11.949748 C38.8004036,12.9917925 39.6386419,13.8369121 40.6718006,13.8369121" id="Fill-1" fill="#FFFFFF" sketch:type="MSShapeGroup" mask="url(#mask-5)"></path>
                    <path d="M11.8095334,29.9738433 L2.58811069,26.122686 C1.63316081,25.7239837 0.538638255,26.1813187 0.14278125,27.1441081 C-0.252674684,28.1068974 0.200936534,29.2104052 1.15588641,29.6091075 L10.3773092,33.4602648 C10.6115346,33.5581207 10.8537814,33.6042181 11.0924186,33.6042181 C11.8267795,33.6042181 12.5238408,33.1654838 12.8222375,32.4388428 C13.2176935,31.4760534 12.7644833,30.3725456 11.8095334,29.9738433" id="Fill-3" fill="#FFFFFF" sketch:type="MSShapeGroup" mask="url(#mask-5)"></path>
                    <path d="M81.2012209,27.1441081 C80.8053639,26.1813187 79.7104403,25.7239837 78.7558915,26.122686 L69.5344687,29.9738433 C68.5795189,30.3725456 68.1259077,31.4760534 68.5217647,32.4388428 C68.8201614,33.1654838 69.5172227,33.6042181 70.2515836,33.6042181 C70.4902208,33.6042181 70.7328687,33.5581207 70.966693,33.4602648 L80.1881158,29.6091075 C81.1430657,29.2104052 81.5966769,28.1068974 81.2012209,27.1441081" id="Fill-5" fill="#FFFFFF" sketch:type="MSShapeGroup" mask="url(#mask-5)"></path>
                    <path d="M21.1677214,18.525506 C21.5286852,19.0701835 22.121468,19.3641557 22.7254809,19.3641557 C23.0828351,19.3641557 23.4442,19.2614474 23.7634524,19.0463261 C24.6229474,18.4672777 24.8539643,17.2954325 24.2800318,16.429286 L18.7348251,8.06219799 C18.1600905,7.1952428 16.997787,6.96232947 16.138693,7.54137789 C15.2795991,8.12042632 15.0485823,9.29227153 15.6225147,10.158418 L21.1677214,18.525506" id="Fill-6" fill="#FFFFFF" sketch:type="MSShapeGroup" mask="url(#mask-5)"></path>
                    <path d="M57.5801487,19.0463261 C57.8998022,19.2614474 58.2611671,19.3641557 58.6185213,19.3641557 C59.2225341,19.3641557 59.815317,19.0701835 60.1762808,18.525506 L65.7214874,10.158418 C66.2954199,9.29227153 66.0644031,8.12042632 65.2049081,7.54137789 C64.3454131,6.96232947 63.1835106,7.19564716 62.6091771,8.06219799 L57.0639704,16.429286 C56.4900379,17.2954325 56.7210548,18.4672777 57.5801487,19.0463261" id="Fill-7" fill="#FFFFFF" sketch:type="MSShapeGroup" mask="url(#mask-5)"></path>
                    <path d="M51.8977758,69.7534997 C51.8949683,71.943532 51.8969737,74.1335643 51.8969737,76.2956956 C51.8969737,76.2956956 50.3773159,77.2309882 47.957254,76.4420751 C47.533322,76.3037828 47.080914,75.8658572 46.6048428,75.410544 C46.0650013,73.8189696 45.6470854,71.9669851 45.3458811,69.9799432 C44.1073741,61.8126107 44.8605853,51.3371718 47.4162093,47.0448541 C47.7190178,46.5361649 47.6620657,45.8891834 47.2754334,45.4423618 C46.8883999,44.9955402 46.2599218,44.8511825 45.7196792,45.0853089 C44.0407963,45.8107369 42.3161914,46.1944778 40.7311591,46.1944778 C39.1838274,46.1944778 37.5249981,45.7711093 35.6600183,44.8997061 C35.1177704,44.6465746 34.4732494,44.7808232 34.0757881,45.2329016 C33.6787279,45.6837668 33.6221769,46.3444966 33.9366165,46.8580382 C36.7188455,51.3994438 37.2161735,61.9982136 35.9953136,69.9791345 C35.6560075,72.1986853 35.183546,74.2160545 34.5903621,75.8440216 C34.578731,75.8767751 34.5747203,75.9099329 34.5650946,75.9430907 C34.1531948,76.1553815 33.758541,76.3207661 33.3867482,76.4420751 C30.9666863,77.2309882 29.4470285,76.2956956 29.4470285,76.2956956 C29.4470285,74.1335643 29.4490339,71.943532 29.4462264,69.7534997 C29.4454242,69.2221662 29.2954237,68.4732851 29.0684176,67.674263 C28.6773734,66.2974055 28.0553124,64.7693161 27.5615941,63.9359231 C26.6599867,62.4130904 25.6232183,60.9945835 24.5623857,59.5934643 C20.6780138,55.5340598 18.2844225,50.0149034 18.2844225,43.9288295 C18.2844225,31.4631138 28.307586,21.3576674 40.6718006,21.3576674 C53.0360151,21.3576674 63.0595797,31.4631138 63.0595797,43.9288295 C63.0595797,50.0149034 60.6659884,55.5340598 56.7816165,59.5934643 C55.7207839,60.9945835 54.6840155,62.4130904 53.7824081,63.9359231 C53.2886898,64.7693161 52.6666288,66.2974055 52.2755846,67.674263 C52.0485785,68.4732851 51.8985779,69.2221662 51.8977758,69.7534997 L51.8977758,69.7534997 Z M37.6196508,48.5167369 C39.7429203,49.0638406 41.7009486,49.0448356 43.7965442,48.575774 C41.9026872,54.2954947 41.6447986,63.2311176 42.6907916,70.3216303 C43.0048301,72.4518168 43.4351792,74.4170231 43.9758229,76.0761262 C43.2037613,76.4036606 42.399213,76.611099 41.5653866,76.6794365 L40.6718006,76.7129986 L39.7786156,76.6794365 C38.9873027,76.6143339 38.2188508,76.216036 37.4824846,75.7279693 C37.9754007,74.1388211 38.3740652,72.3009893 38.6716598,70.3232478 C39.7433214,63.2007904 39.5022777,54.2550583 37.6196508,48.5167369 L37.6196508,48.5167369 Z M43.7018914,88.0266829 L37.6421108,88.0266829 C35.3451776,85.192904 33.0033244,82.303323 30.5471661,79.2734278 C32.6170931,79.222478 34.307206,78.8128579 35.7915695,77.7182461 C37.2578848,78.8055794 38.9235324,79.2693842 40.6718006,79.235822 C42.4204698,79.2693842 44.0857163,78.8055794 45.5524327,77.7182461 C47.0367962,78.8128579 48.7269091,79.222478 50.7968361,79.2734278 C48.3406778,82.303323 45.9988246,85.192904 43.7018914,88.0266829 L43.7018914,88.0266829 Z M66.855716,44.0088935 C66.855716,29.4295701 55.1328139,17.6104316 40.6718006,17.6104316 C26.2111883,17.6104316 14.4882862,29.4295701 14.4882862,44.0088935 C14.4882862,51.4184489 17.5187781,58.1110679 22.3953995,62.9039876 C22.3825652,62.8914524 22.3689288,62.8793215 22.3560945,62.8667862 C22.6015499,63.195938 22.8454011,63.5263029 23.0848404,63.859094 C24.5724125,65.9245824 25.8000906,68.0786264 25.7186732,70.7781566 C25.6476836,73.1331692 25.734315,75.4922254 25.6825768,77.8480468 C25.6697425,78.4400348 25.7876574,78.9891603 26.0780327,79.414955 C26.9760305,80.7319667 34.4078748,90.1584869 35.6419701,91.6113647 C36.1649666,92.2272102 36.7264659,92.8191982 37.174061,93.4880153 C37.9894382,94.7063623 40.4119066,97.0472222 40.6718006,97.0472222 C40.9316945,97.0472222 43.354564,94.7063623 44.1699412,93.4880153 C44.6171353,92.8191982 45.1790356,92.2272102 45.7020321,91.6113647 C46.9361274,90.1584869 54.3679716,80.7319667 55.2659695,79.414955 C55.5563448,78.9891603 55.6742597,78.4400348 55.6614254,77.8480468 C55.6096872,75.4922254 55.6963186,73.1331692 55.625329,70.7781566 C55.5439116,68.0786264 56.7715897,65.9245824 58.2591618,63.859094 C58.4986011,63.5263029 58.7424522,63.195938 58.9879077,62.8663818 C58.9750734,62.8793215 58.9610359,62.8914524 58.9482016,62.904392 C63.8252241,58.1110679 66.855716,51.4184489 66.855716,44.0088935 L66.855716,44.0088935 Z" id="Fill-9" fill="#FFFFFF" sketch:type="MSShapeGroup" mask="url(#mask-5)"></path>
                </g>
            </g>
        </g>
    </g>
</svg>