<?xml version="1.0" encoding="UTF-8" standalone="no"?>
<svg width="116px" height="50px" viewBox="0 0 116 50" version="1.1" xmlns="http://www.w3.org/2000/svg" xmlns:xlink="http://www.w3.org/1999/xlink" xmlns:sketch="http://www.bohemiancoding.com/sketch/ns">
    <!-- Generator: Sketch 3.3.3 (12072) - http://www.bohemiancoding.com/sketch -->
    <title>swell-logo-bw</title>
    <desc>Created with Sketch.</desc>
    <defs></defs>
    <g id="Press" stroke="none" stroke-width="1" fill="none" fill-rule="evenodd" sketch:type="MSPage">
        <g id="swell-press" sketch:type="MSArtboardGroup" transform="translate(-954.000000, -1351.000000)" fill="#000000">
            <g id="swell-logo-bw" sketch:type="MSLayerGroup" transform="translate(954.000000, 1351.500000)">
                <path d="M0.443860568,44.9363202 L1.88229145,42.249522 C2.15640502,41.6984182 2.909552,41.4918101 3.59483591,41.9045801 C3.59483591,41.9045801 6.60786736,43.6962252 9.96376255,43.6962252 C12.0182836,43.6962252 13.3196577,42.8697926 13.3196577,41.3539226 C13.3196577,39.4935569 11.8129202,38.5975112 8.04629825,36.8754793 C3.8001993,35.0151136 0.238497169,32.3965897 0.238497169,27.8489796 C0.238497169,24.4044694 3.04660878,20.2700755 9.62134237,20.2700755 C13.456271,20.2700755 16.3331327,21.5101706 17.7028135,22.4062162 C18.3189037,22.8194325 18.6617674,23.7154782 18.250597,24.4044694 L17.0179731,26.746772 C16.6751094,27.3665964 15.7849056,27.5736508 15.237122,27.2978758 C15.237122,27.2978758 12.223647,25.8511726 9.62134237,25.8511726 C7.29270772,25.8511726 6.53956075,26.8846595 6.53956075,27.9181465 C6.53956075,29.7093453 8.25166165,30.4675034 10.9222729,31.6388778 C15.9219624,33.8437392 20.0314481,35.9794336 20.0314481,41.1468682 C20.0314481,45.4187034 15.990269,49.2086016 9.89545593,49.2086016 C5.30649326,49.2086016 2.29301825,47.5548441 0.855030914,46.3839159 C0.443860568,46.1076946 0.170190553,45.4878702 0.443860568,44.9363202" id="Fill-1" sketch:type="MSShapeGroup"></path>
                <path d="M22.5849623,22.5441037 C22.1742355,21.6480581 22.5849623,20.9590668 23.5439163,20.9590668 L27.2417881,20.9590668 C27.721265,20.9590668 28.3377988,21.3035625 28.4748556,21.7859456 L33.0633747,37.0129205 L33.1321249,37.0129205 L40.4600054,20.9590668 C40.5970622,20.6145712 41.0760956,20.2700755 41.6238792,20.2700755 L42.0350495,20.2700755 C42.6515833,20.2700755 43.0623101,20.6145712 43.1993669,20.9590668 L50.4584973,37.0820874 L50.5272474,37.0820874 L55.0474599,21.7859456 C55.3894366,20.9590668 56.4171407,20.9590668 57.1702876,20.9590668 L59.8413425,20.9590668 C60.8002964,20.9590668 61.2797733,21.6480581 60.868603,22.5441037 L52.8554385,48.5196103 C52.7188253,48.9328266 52.2393483,49.2086016 51.6228146,49.2086016 L51.3491446,49.2086016 C50.801361,49.2086016 50.321884,48.9328266 50.1848272,48.588331 L41.7613795,30.1917284 L41.6926294,30.1917284 L33.3370447,48.588331 C33.2004315,48.9328266 32.7892611,49.2086016 32.2414775,49.2086016 L31.8990574,49.2086016 C31.3512738,49.2086016 30.8717968,48.9328266 30.73474,48.5196103 L22.5849623,22.5441037" id="Fill-2" sketch:type="MSShapeGroup"></path>
                <path d="M77.0515049,20.2700755 C84.1740221,20.2700755 89.652745,25.6445645 89.652745,33.0164142 C89.652745,33.4987973 89.5844384,34.3948429 89.5161317,34.8767798 C89.4473816,35.5657711 88.899598,36.0481543 88.2835078,36.0481543 L69.6548742,36.0481543 C69.8602376,39.7688857 73.079076,43.4208964 77.5309819,43.4208964 C79.9966733,43.4208964 82.2565578,42.3182426 83.6262385,41.4226432 C84.4481357,40.9402601 84.9271691,40.6649313 85.4749526,41.3539226 L87.3928605,43.9720002 C87.8723375,44.5235502 88.0777009,45.074654 87.2558037,45.7636452 C85.2695892,47.4856772 81.7083307,49.2086016 77.1202551,49.2086016 C68.8334206,49.2086016 63.3542542,42.6631845 63.3542542,34.7393386 C63.3542542,26.9538264 68.8334206,20.2700755 77.0515049,20.2700755 L77.0515049,20.2700755 Z M83.2838183,31.7075985 C83.0780114,28.4005296 80.3386499,25.5758439 76.9831983,25.5758439 C73.2848829,25.5758439 70.4084647,28.2626421 69.9977379,31.7075985 L83.2838183,31.7075985 L83.2838183,31.7075985 Z" id="Fill-3" sketch:type="MSShapeGroup"></path>
                <path d="M95.1793712,1.59814421 C95.1793712,0.908706698 95.7959049,0.288882292 96.4807453,0.288882292 L100.384424,0.288882292 C101.069708,0.288882292 101.685355,0.908706698 101.685355,1.59814421 L101.685355,47.2103484 C101.685355,47.8993397 101.069708,48.5196103 100.384424,48.5196103 L96.4807453,48.5196103 C95.7959049,48.5196103 95.1793712,47.8993397 95.1793712,47.2103484 L95.1793712,1.59814421" id="Fill-4" sketch:type="MSShapeGroup"></path>
                <path d="M109.067792,1.59814421 C109.067792,0.908706698 109.683882,0.288882292 110.368722,0.288882292 L114.272401,0.288882292 C114.957685,0.288882292 115.574219,0.908706698 115.574219,1.59814421 L115.574219,47.2103484 C115.574219,47.8993397 114.957685,48.5196103 114.272401,48.5196103 L110.368722,48.5196103 C109.683882,48.5196103 109.067792,47.8993397 109.067792,47.2103484 L109.067792,1.59814421" id="Fill-5" sketch:type="MSShapeGroup"></path>
            </g>
        </g>
    </g>
</svg>