<?xml version="1.0" encoding="UTF-8" standalone="no"?>
<svg width="43px" height="43px" viewBox="0 0 43 43" version="1.1" xmlns="http://www.w3.org/2000/svg" xmlns:xlink="http://www.w3.org/1999/xlink" xmlns:sketch="http://www.bohemiancoding.com/sketch/ns">
    <!-- Generator: Sketch 3.3.3 (12072) - http://www.bohemiancoding.com/sketch -->
    <title>Oval 11 Copy 4 + noun_34677_cc copy 4</title>
    <desc>Created with Sketch.</desc>
    <defs></defs>
    <g id="Moms-to-be" stroke="none" stroke-width="1" fill="none" fill-rule="evenodd" sketch:type="MSPage">
        <g id="moms-to-be-04-copy" sketch:type="MSArtboardGroup" transform="translate(-1187.000000, -936.000000)">
            <g id="Oval-11-Copy-4-+-noun_34677_cc-copy-4" sketch:type="MSLayerGroup" transform="translate(1188.000000, 937.000000)">
                <circle id="Oval-11-Copy-4" stroke="#7ED321" sketch:type="MSShapeGroup" cx="20.5" cy="20.5" r="20.5"></circle>
                <g id="noun_34677_cc-copy-4" transform="translate(14.000000, 15.000000)" fill="#7ED321" sketch:type="MSShapeGroup">
                    <path d="M13.2433333,1.7730625 L11.776,0.2591875 C11.656,0.13475 11.4613333,0.13475 11.3413333,0.2591875 L4.76466667,7.041375 L1.99266667,4.18275 C1.87266667,4.059 1.678,4.059 1.558,4.18275 L0.0906666667,5.696625 C-0.0293333333,5.820375 -0.0293333333,6.0204375 0.0906666667,6.144875 L3.08,9.227625 L4.54733333,10.7408125 C4.66733333,10.86525 4.862,10.86525 4.982,10.7408125 L6.44933333,9.227625 L13.2433333,2.220625 C13.3633333,2.096875 13.3633333,1.8968125 13.2433333,1.7730625 L13.2433333,1.7730625 Z" id="Shape"></path>
                </g>
            </g>
        </g>
    </g>
</svg>