<?xml version="1.0" encoding="utf-8"?>
<!-- Generator: Adobe Illustrator 17.1.0, SVG Export Plug-In . SVG Version: 6.00 Build 0)  -->
<!DOCTYPE svg PUBLIC "-//W3C//DTD SVG 1.1//EN" "http://www.w3.org/Graphics/SVG/1.1/DTD/svg11.dtd">
<svg version="1.1" id="Layer_1" xmlns="http://www.w3.org/2000/svg" xmlns:xlink="http://www.w3.org/1999/xlink" x="0px" y="0px"
	 viewBox="0 0 1280 800" enable-background="new 0 0 1280 800" xml:space="preserve">
<g>
	<path fill="#4D4D4D" d="M33.7,599l15.1-27.9c2.3-5.8,10.5-8.1,18.6-3.5c0,0,31.4,18.6,67.5,18.6c22.1,0,34.9-8.1,34.9-24.4
		c0-19.8-16.3-29.1-55.9-46.5c-44.2-19.8-82.6-46.5-82.6-94.3c0-36.1,29.1-79.1,98.9-79.1c40.7,0,71,12.8,84.9,22.1
		c7,4.7,10.5,14,5.8,20.9l-11.6,23.3c-3.5,7-12.8,8.1-18.6,5.8c0,0-31.4-15.1-59.3-15.1c-24.4,0-32.6,10.5-32.6,22.1
		c0,18.6,18.6,26.8,46.5,39.6c52.4,23.3,96.6,45.4,96.6,100.1c0,44.2-43.1,84.9-107.1,84.9c-48.9,0-80.3-17.5-95.4-29.1
		C33.7,611.8,31.4,604.8,33.7,599z"/>
	<path fill="#4D4D4D" d="M267.6,363.9c-4.7-9.3,0-16.3,10.5-16.3h39.6c4.7,0,11.6,3.5,12.8,8.1l47.7,160.6h1.2l76.8-168.7
		c1.2-3.5,7-7,12.8-7h4.7c7,0,10.5,3.5,12.8,7L562,516.4h1.2l47.7-160.6c3.5-8.1,14-8.1,22.1-8.1h27.9c10.5,0,15.1,7,10.5,16.3
		l-84.9,272.3c-1.2,4.7-7,7-12.8,7h-2.3c-5.8,0-10.5-2.3-12.8-7l-88.4-193.2h-1.2l-88.4,193.2c-1.2,3.5-5.8,7-11.6,7h-3.5
		c-5.8,0-10.5-2.3-12.8-7L267.6,363.9z"/>
	<path fill="#4D4D4D" d="M841.3,340.7c75.6,0,132.7,55.9,132.7,133.8c0,4.7-1.2,14-1.2,19.8c-1.2,7-7,12.8-12.8,12.8H763.3
		c2.3,39.6,36.1,76.8,82.6,76.8c25.6,0,50-11.6,64-20.9c8.1-4.7,14-8.1,19.8-1.2l19.8,27.9c4.7,5.8,7,11.6-1.2,18.6
		c-20.9,18.6-58.2,36.1-107.1,36.1c-87.3,0-145.5-68.7-145.5-151.3C697,410.5,755.2,340.7,841.3,340.7z M907.6,460.5
		c-2.3-34.9-31.4-64-66.3-64c-39.6,0-69.8,27.9-73.3,64H907.6z"/>
	<path fill="#4D4D4D" d="M1033.3,145.2c0-7,7-14,14-14h40.7c7,0,14,7,14,14v478.3c0,7-7,14-14,14h-40.7c-7,0-14-7-14-14V145.2z"/>
	<path fill="#4D4D4D" d="M1179.9,145.2c0-7,7-14,14-14h40.7c7,0,14,7,14,14v478.3c0,7-7,14-14,14h-40.7c-7,0-14-7-14-14V145.2z"/>
</g>
</svg>
