<?xml version="1.0" encoding="UTF-8" standalone="no"?>
<svg width="36px" height="36px" viewBox="0 0 36 36" version="1.1" xmlns="http://www.w3.org/2000/svg" xmlns:xlink="http://www.w3.org/1999/xlink" xmlns:sketch="http://www.bohemiancoding.com/sketch/ns">
    <title>marker copy 2</title>
    <description>Created with Sketch (http://www.bohemiancoding.com/sketch)</description>
    <defs cx="50%" r="50%" id="radialGradient-1" fy="37.375%" cy="37.375%" fx="50%">
        <radialGradient>
            <stop stop-color="#FFFFFF" offset="0%"></stop>
            <stop stop-color="#FDFEFF" offset="100%"></stop>
        </radialGradient>
    </defs>
    <g id="Page 1" stroke="none" stroke-width="1" fill="none" fill-rule="evenodd">
        <g id="Web" transform="translate(-803.000000, -456.000000)">
            <path d="M0,0 L0,1600 L1200,1600 L1200,0 L0,0 Z M0,0" id="x" opacity="0.5" fill="#FFFFFF"></path>
            <path d="M0,0 L0,800 L1200,800 L1200,0 L0,0 Z M0,0" id="tint" fill="url(#radialGradient-1)"></path>
            <g id="7b Item details" transform="translate(0.000000, 105.000000)">
                <g id="List" transform="translate(360.000000, 0.000000)"></g>
                <g id="marker copy 2" transform="translate(802.000000, 350.000000)">
                    <path d="M31.7279082,6.27209182 C24.6984761,-0.757358286 13.3015239,-0.757358286 6.27209182,6.27209182 C-0.757358286,13.3015239 -0.757358286,24.6984761 6.27209182,31.7279082 C13.3015239,38.7575203 24.6984761,38.7575203 31.7279082,31.7279082 C38.7575203,24.6984761 38.7575203,13.3015239 31.7279082,6.27209182 Z M31.7279082,6.27209182" id="Oval 8" stroke="#EEEEEE" fill="#FFFFFF"></path>
                    <g id="icon bulb" transform="translate(10.000000, 6.000000)">
                        <path d="M5.94703014,21 C5.3963856,21 4.95,21.4438648 4.95,22 L4.95,22 C4.95,22.5522847 5.40303631,23 5.94703014,23 L11.9529699,23 C12.5036144,23 12.95,22.5561352 12.95,22 L12.95,22 C12.95,21.4477153 12.4969637,21 11.9529699,21 L5.94703014,21 Z M5.94703014,21" id="Rectangle 16 copy 2" fill="#FF8800"></path>
                        <path d="M6.99077797,24 C6.44358641,24 6,24.4438648 6,25 L6,25 C6,25.5522847 6.45097518,26 6.99077797,26 L11.009222,26 C11.5564136,26 12,25.5561352 12,25 L12,25 C12,24.4477153 11.5490248,24 11.009222,24 L6.99077797,24 Z M6.99077797,24" id="Rectangle 16 copy 4" fill="#FF8800"></path>
                        <path d="M12.95,17.089132 L12.95,19.0001925 C12.95,19.5562834 12.5036144,20 11.9529699,20 L5.94703014,20 C5.40303631,20 4.95,19.5523709 4.95,19.0001925 L4.95,17.039435 C2.01368306,15.5573017 0,12.5138075 0,9 C0,4.029444 4.029444,0 9,0 C13.970556,0 18,4.029444 18,9 C18,12.5535691 15.9404862,15.6261206 12.95,17.089132 Z M12.95,17.089132" id="Rectangle 16 copy 3" stroke="#FF8800" stroke-width="2" fill="#FFFFFF"></path>
                    </g>
                </g>
            </g>
        </g>
    </g>
</svg>