<?xml version="1.0" encoding="utf-8"?>
<!-- Generator: Adobe Illustrator 18.0.0, SVG Export Plug-In . SVG Version: 6.00 Build 0)  -->
<!DOCTYPE svg PUBLIC "-//W3C//DTD SVG 1.1//EN" "http://www.w3.org/Graphics/SVG/1.1/DTD/svg11.dtd">
<svg version="1.1" id="Layer_1" xmlns="http://www.w3.org/2000/svg" xmlns:xlink="http://www.w3.org/1999/xlink" x="0px" y="0px"
	 viewBox="0 0 100 100" enable-background="new 0 0 100 100" xml:space="preserve">
<linearGradient id="SVGID_1_" gradientUnits="userSpaceOnUse" x1="50" y1="0" x2="50" y2="100">
	<stop  offset="0" style="stop-color:#9ADBB7"/>
	<stop  offset="1" style="stop-color:#E2AC34"/>
</linearGradient>
<circle fill="url(#SVGID_1_)" cx="50" cy="50" r="50"/>
<g>
	<path fill="#FFFFFF" d="M50,25.1c0.7,0,1.4-0.6,1.4-1.4v-7.2c0-0.7-0.6-1.4-1.4-1.4c-0.7,0-1.4,0.6-1.4,1.4v7.2
		C48.6,24.5,49.3,25.1,50,25.1z"/>
	<path fill="#FFFFFF" d="M29.1,36.7l-6.7-2.8c-0.7-0.3-1.5,0-1.8,0.7c-0.3,0.7,0,1.5,0.7,1.8l6.7,2.8c0.2,0.1,0.3,0.1,0.5,0.1
		c0.5,0,1-0.3,1.3-0.8C30.1,37.8,29.8,37,29.1,36.7z"/>
	<path fill="#FFFFFF" d="M79.3,34.7c-0.3-0.7-1.1-1-1.8-0.7l-6.7,2.8c-0.7,0.3-1,1.1-0.7,1.8c0.2,0.5,0.7,0.8,1.3,0.8
		c0.2,0,0.3,0,0.5-0.1l6.7-2.8C79.3,36.1,79.6,35.4,79.3,34.7z"/>
	<path fill="#FFFFFF" d="M35.9,28.5c0.3,0.4,0.7,0.6,1.1,0.6c0.3,0,0.5-0.1,0.8-0.2c0.6-0.4,0.8-1.3,0.4-1.9l-4-6
		c-0.4-0.6-1.3-0.8-1.9-0.4c-0.6,0.4-0.8,1.3-0.4,1.9L35.9,28.5z"/>
	<path fill="#FFFFFF" d="M62.2,28.9c0.2,0.2,0.5,0.2,0.8,0.2c0.4,0,0.9-0.2,1.1-0.6l4-6c0.4-0.6,0.2-1.5-0.4-1.9
		c-0.6-0.4-1.5-0.2-1.9,0.4l-4,6C61.4,27.6,61.6,28.4,62.2,28.9z"/>
	<path fill="#FFFFFF" d="M68.9,46.8c0-10.5-8.5-18.9-18.9-18.9s-18.9,8.5-18.9,18.9c0,5.3,2.2,10.1,5.7,13.6c0,0,0,0,0,0
		c0.2,0.2,0.4,0.5,0.5,0.7c1.1,1.5,2,3,1.9,5c-0.1,1.7,0,3.4,0,5.1c0,0.4,0.1,0.8,0.3,1.1c0.6,0.9,6,7.7,6.9,8.7
		c0.4,0.4,0.8,0.9,1.1,1.3c0.6,0.9,2.3,2.6,2.5,2.6c0.2,0,1.9-1.7,2.5-2.6c0.3-0.5,0.7-0.9,1.1-1.3c0.9-1,6.3-7.8,6.9-8.7
		c0.2-0.3,0.3-0.7,0.3-1.1c0-1.7,0-3.4,0-5.1c-0.1-1.9,0.8-3.5,1.9-5c0.2-0.2,0.3-0.5,0.5-0.7c0,0,0,0,0,0
		C66.7,56.9,68.9,52.1,68.9,46.8z M52.2,78.3h-4.4c-1.7-2-3.4-4.1-5.1-6.3c1.5,0,2.7-0.3,3.8-1.1c1.1,0.8,2.3,1.1,3.5,1.1
		c1.3,0,2.5-0.3,3.5-1.1c1.1,0.8,2.3,1.1,3.8,1.1C55.5,74.2,53.9,76.3,52.2,78.3z M47.8,50c1.5,0.4,3,0.4,4.5,0
		c-1.4,4.1-1.6,10.5-0.8,15.6c0.2,1.5,0.5,2.9,0.9,4.1c-0.6,0.2-1.1,0.4-1.7,0.4l-0.6,0l-0.6,0c-0.6,0-1.1-0.3-1.7-0.7
		c0.4-1.1,0.6-2.5,0.9-3.9C49.3,60.5,49.2,54.1,47.8,50z M58.1,65.2c0,1.6,0,3.1,0,4.7c0,0-1.1,0.7-2.8,0.1c-0.3-0.1-0.6-0.4-1-0.7
		c-0.4-1.1-0.7-2.5-0.9-3.9C52.5,59.5,53,52,54.9,48.9c0.2-0.4,0.2-0.8-0.1-1.1c-0.3-0.3-0.7-0.4-1.1-0.3c-1.2,0.5-2.5,0.8-3.6,0.8
		c-1.1,0-2.3-0.3-3.7-0.9c-0.4-0.2-0.9-0.1-1.1,0.2c-0.3,0.3-0.3,0.8-0.1,1.2c2,3.3,2.4,10.9,1.5,16.6c-0.2,1.6-0.6,3-1,4.2
		c0,0,0,0,0,0.1c-0.3,0.2-0.6,0.3-0.9,0.4c-1.8,0.6-2.8-0.1-2.8-0.1c0-1.6,0-3.1,0-4.7c0-0.4-0.1-0.9-0.3-1.5
		c-0.3-1-0.7-2.1-1.1-2.7c-0.7-1.1-1.4-2.1-2.2-3.1c-2.8-2.9-4.5-6.9-4.5-11.2c0-8.9,7.2-16.2,16.2-16.2c8.9,0,16.2,7.2,16.2,16.2
		c0,4.4-1.7,8.3-4.5,11.2c-0.8,1-1.5,2-2.2,3.1c-0.4,0.6-0.8,1.7-1.1,2.7C58.2,64.3,58.1,64.8,58.1,65.2z"/>
</g>
</svg>
